<?xml version="1.0" standalone="no"?>
<!DOCTYPE svg PUBLIC "-//W3C//DTD SVG 1.1//EN" "http://www.w3.org/Graphics/SVG/1.1/DTD/svg11.dtd" >
<svg xmlns="http://www.w3.org/2000/svg">
<metadata>Generated by IcoMoon</metadata>
<defs>
<font id="ScholasticKids_Icons" horiz-adv-x="1024">
<font-face units-per-em="1024" ascent="960" descent="-64" />
<missing-glyph horiz-adv-x="1024" />
<glyph unicode="&#x20;" horiz-adv-x="512" d="" />
<glyph unicode="&#x31;" glyph-name="up-solid" d="M307.2 345.6l204.8 204.8 204.8-204.8z" />
<glyph unicode="&#x32;" glyph-name="news" d="M996.966 490.189c-8.602 22.733-21.914 39.526-27.238 45.67l-0.41 0.41c-5.12 5.53-12.288 8.602-19.251 8.602h-0.205c-7.782-0.205-14.131-2.867-19.251-7.987l-95.846-98.918-387.686 370.074c-22.733 21.504-57.958 21.299-80.486-0.41l-299.008-293.274c-30.106-20.685-48.128-54.886-48.128-91.341 0-28.058 10.445-54.682 29.286-74.957 5.325-5.53 12.288-8.602 19.456-8.602 6.554 0 12.698 2.253 17.613 6.758l107.93 96.256 342.221-334.234c0.41-0.41 0.819-0.819 1.229-1.229v0c20.89-22.323 50.381-35.021 81.101-35.021 43.418 0 82.944 25.6 101.376 65.536l267.674 261.53c18.842 26.624 22.118 58.163 9.626 91.136zM661.299 222.515v0c9.83-11.059 15.155-24.781 15.155-39.117 0-7.168-1.229-14.336-3.891-20.685l-0.41-1.229v-0.205c-9.421-21.914-30.31-35.84-53.862-35.84-16.794 0-32.768 7.168-43.827 19.866-1.229 1.434-2.662 2.867-3.891 3.686l-356.966 348.16c-14.336 16.179-33.178 27.648-53.862 33.382l244.326 238.797c1.843 1.843 4.71 2.048 6.554 0l387.482-370.074-135.782-140.288c-10.035-9.626-10.445-25.6-1.024-36.454zM152.576 476.467l-77.824-69.427c-1.434 5.12-2.253 10.445-2.253 15.565 0 32.154 26.010 58.163 58.163 58.163 7.578 0 15.155-1.434 21.914-4.301zM946.79 432.845l-222.003-216.474c-2.253 7.373-5.53 14.541-9.216 21.504l230.4 238.387c6.349-13.517 9.83-29.901 0.819-43.418zM470.221 642.97c9.626 10.65 9.421 27.238-0.614 37.274v0c-10.445 10.445-27.238 10.445-37.478 0l-164.25-164.25c-10.445-10.445-10.445-27.238 0-37.683 4.915-4.915 11.469-7.578 19.046-7.578 6.963 0 13.926 2.662 19.046 7.578l164.25 164.25v0.41zM540.672 608.973c-4.915 4.915-11.674 7.782-18.842 7.782s-13.722-2.867-18.842-7.782l-164.25-164.25c-5.12-5.12-7.782-11.674-7.782-18.842s2.867-13.722 7.782-18.842c4.915-4.915 11.469-7.578 19.046-7.578 6.963 0 13.926 2.662 19.046 7.578l164.25 164.25c10.24 10.65 10.035 27.443-0.41 37.683zM611.942 537.907v0c-10.445 10.445-27.238 10.445-37.683 0l-164.25-164.25c-10.445-10.445-10.445-27.238 0-37.478 4.915-4.915 11.469-7.578 19.046-7.578 6.963 0 13.926 2.662 19.046 7.578l164.454 164.454c9.83 10.24 9.626 26.829-0.614 37.274zM683.418 466.637c-10.854 10.24-27.443 10.24-37.888-0.205l-164.25-164.25c-10.445-10.445-10.445-27.238 0-37.683 4.915-4.915 11.469-7.578 19.046-7.578 6.963 0 13.926 2.662 19.046 7.578l164.25 164.25c10.24 10.445 10.24 27.238-0.205 37.888z" />
<glyph unicode="&#x33;" glyph-name="play" d="M844.186 539.546c0 0 0 0 0 0-22.528 31.744-58.573 74.957-111.821 83.354-28.467 4.301-55.501-2.253-77.414-7.578l-112.64-26.829c-1.434 22.528-6.963 44.032-11.878 63.078l-0.205 0.819c-4.915 19.251-9.626 37.478-10.24 54.886-1.843 43.008 23.347 87.45 61.645 107.725 14.131 7.578 19.661 25.19 12.083 39.526-7.578 14.131-25.19 19.661-39.526 12.083-58.163-30.925-95.232-95.846-92.365-161.587 1.024-22.938 6.144-44.237 12.493-67.789l0.205-0.614c4.506-17.613 8.806-34.202 10.035-50.176l-44.237 10.854c-8.397 2.048-16.589 4.096-24.986 6.144-17.203 4.301-33.382 8.192-49.152 11.878-21.914 5.325-49.357 11.674-77.414 7.578-53.658-8.397-89.498-51.61-111.616-83.354-74.547-105.882-113.664-234.906-110.797-363.93 0.614-22.938 2.662-49.766 12.493-75.162 11.878-30.31 33.997-53.453 60.416-63.693 10.65-4.096 22.118-6.144 34.202-6.144 43.622 0 78.234 27.853 91.136 39.731 14.746 13.722 26.624 28.672 38.093 43.213l1.024 1.434c9.626 12.288 19.046 24.371 29.696 34.611 18.022 18.022 40.141 31.949 64.307 40.141 34.202 12.083 73.523 13.517 111.411 14.95h2.867c37.888-1.434 77.005-2.867 111.411-14.95 23.962-8.397 46.285-22.323 64.512-40.346 9.83-9.626 18.432-20.685 27.853-32.358l2.867-3.686c11.469-14.541 23.552-29.696 38.093-43.213 22.733-21.299 56.115-39.936 91.136-39.936 11.264 0 22.733 1.843 33.997 6.349 26.624 10.24 48.742 33.587 60.416 63.693 10.035 25.395 11.878 52.224 12.493 75.162 2.662 129.638-36.659 258.867-110.592 364.134zM896 177.050c0 0 0 0 0 0-0.41-17.613-1.638-38.093-8.602-55.296-5.939-15.155-15.77-26.214-27.443-30.72-20.070-7.782-46.694 5.325-64.307 21.709-11.264 10.445-21.299 23.142-31.949 36.454l-2.662 3.277c-10.24 12.698-20.685 26.010-32.973 38.298-24.166 23.962-54.067 42.598-86.016 53.862-43.418 15.155-88.883 16.794-129.024 18.227-1.024 0-2.253 0-3.686-0.205-0.819 0.205-1.434 0.205-2.253 0.205-40.141-1.434-85.606-2.867-129.024-18.227-32.154-11.469-61.85-29.901-85.811-53.658-11.878-11.674-21.914-24.371-31.744-36.659l-5.53-6.963c-10.035-12.493-19.456-24.371-30.31-34.406-17.613-16.384-44.237-29.491-64.307-21.709-11.264 4.506-21.299 15.565-27.443 30.72-6.758 17.203-8.192 37.478-8.602 55.296-2.867 116.531 32.563 233.267 99.738 328.704 25.805 36.659 48.947 55.501 72.909 59.187 2.867 0.41 6.349 0.614 10.24 0.614 13.722 0 29.082-3.686 43.827-7.168l0.819-0.205c14.336-3.482 29.082-6.963 44.646-10.854 9.421-2.253 19.046-4.71 28.672-7.168l49.357-12.083c21.914-5.325 44.237-5.325 66.355 0l126.976 30.31c18.842 4.506 38.093 9.216 54.886 6.554 23.962-3.891 47.309-22.733 72.909-59.187 67.789-95.437 103.219-212.173 100.352-328.909zM403.251 423.219h-46.694v46.694c0 16.179-13.107 29.286-29.286 29.286s-29.286-13.107-29.286-29.286v-46.694h-46.694c-16.179 0-29.286-13.107-29.286-29.286s13.107-29.286 29.286-29.286h46.694v-46.694c0-16.179 13.107-29.286 29.286-29.286s29.286 13.107 29.286 29.286v46.694h46.694c16.179 0 29.286 13.107 29.286 29.286s-13.107 29.286-29.286 29.286zM692.838 418.918c20.685 0 37.478 16.794 37.478 37.478s-16.794 37.478-37.478 37.478-37.478-16.794-37.478-37.478 16.794-37.478 37.478-37.478zM692.838 380.211c-20.685 0-37.478-16.794-37.478-37.478s16.794-37.478 37.478-37.478 37.478 16.794 37.478 37.478-16.794 37.478-37.478 37.478zM749.773 437.146c-20.685 0-37.478-16.794-37.478-37.478s16.794-37.478 37.478-37.478 37.478 16.794 37.478 37.478-16.794 37.478-37.478 37.478zM673.382 399.667c0 20.685-16.794 37.478-37.478 37.478s-37.478-16.794-37.478-37.478 16.794-37.478 37.478-37.478 37.478 16.794 37.478 37.478z" />
<glyph unicode="&#x35;" glyph-name="favorite-filled" d="M876.134 295.834c-4.915-3.891-8.602-9.421-10.854-15.974-2.048-6.758-1.638-13.722 1.229-20.070 0.819-2.458 3.891-14.336 9.626-39.117 4.915-21.709-3.891-38.912-27.648-54.067-7.373-4.301-12.083-11.059-13.722-19.046-1.434-7.373-0.614-14.131 2.458-20.48 2.048-4.506 4.301-12.288 7.373-23.347 2.458-9.421 2.253-17.408-1.024-24.166-2.253-4.096-5.12-7.168-9.011-9.626-4.096-2.662-9.421-4.506-15.565-5.734l-258.662 4.301c-38.912 0.819-75.981 7.168-113.254 19.251-36.25 11.674-71.27 28.877-103.834 50.995l-24.371 16.998v272.794c11.264 7.373 27.648 19.456 49.562 36.659 25.19 19.661 49.562 45.056 72.294 75.571 23.347 30.72 42.189 67.789 56.32 110.592 14.131 43.008 16.179 91.75 6.144 144.998v0.205c-1.638 7.782-0.205 14.95 4.301 22.118 4.506 6.963 9.83 11.059 16.179 12.493 8.192 1.638 16.589 0.819 25.6-2.867 9.421-3.482 17.818-9.421 25.19-17.408 0.205-0.205 0.205-0.205 0.41-0.41 6.758-6.758 12.698-15.155 18.227-26.010 5.53-11.264 9.83-24.166 12.902-38.093 0-0.205 0-0.205 0-0.41 8.192-31.334 11.674-63.693 10.65-96.666s-6.758-64.717-16.794-94.618c-2.048-6.144-2.253-12.288-0.819-18.227 0-0.205 0-0.41 0.205-0.41 1.843-5.734 5.325-10.854 10.035-14.746 14.746-12.493 32.154-20.48 51.61-23.552 17.818-2.867 35.635-4.096 52.634-3.482l136.602 2.048c0.205 0 0.205 0 0.41 0 11.469 0.614 22.118-1.229 32.154-5.53 9.83-4.096 17.613-9.83 22.733-16.794 2.662-3.482 5.325-10.854 7.782-21.709 0.614-2.867 0.819-13.926-26.829-39.936l-0.205-0.205c-2.048-2.048-4.096-4.71-6.144-7.987-0.205-0.41-0.614-1.024-0.819-1.434-1.024-2.662-2.458-6.758-2.458-10.854 0-3.482 0.41-6.963 1.434-10.445 0-0.205 0.205-0.41 0.205-0.819 1.229-3.686 3.277-7.373 6.144-10.24 10.65-15.77 16.179-29.082 15.77-38.502-0.41-5.939-2.662-11.674-6.554-17.203-3.891-6.144-10.035-12.493-17.613-18.842zM257.434 470.118v-357.786h-148.070v357.786h148.070z" />
<glyph unicode="&#x36;" glyph-name="cart-filled" d="M1015.603 701.133l-0.614 0.819c-7.168 9.011-17.818 14.131-29.286 14.131h-737.69l-33.792 101.171c-3.891 11.878-14.131 21.299-26.419 24.576l-140.698 33.382c-20.48 4.506-40.141-7.578-45.056-27.853-2.458-9.626-0.819-20.070 4.506-28.467s13.517-14.336 23.347-16.794l119.808-28.467 34.406-102.605c0.614-3.277 1.843-6.349 3.277-9.216l99.123-296.55c-0.205-0.41-0.41-0.819-0.41-1.434l-22.938-80.896c-29.082-3.891-56.32-17.613-77.21-38.912-24.166-24.781-37.478-57.549-37.478-91.955 0-73.114 59.392-132.506 132.301-132.506 31.539 0 61.85 11.264 85.811 31.744 19.456 16.589 33.792 38.707 41.165 62.669h232.653c7.373-24.576 21.504-46.080 41.165-62.874 24.166-20.48 54.682-31.539 85.811-31.539 72.909 0 132.301 59.392 132.301 132.301 0 73.114-59.392 132.506-132.301 132.506-31.13 0-61.645-11.264-85.811-31.744-19.456-16.589-33.792-38.707-41.165-62.874h-232.858c-10.854 36.045-36.454 66.15-69.837 82.125l12.698 44.851h546.816c16.794 0 31.334 10.854 36.25 26.829l88.678 326.042v0.41c2.458 11.059 0 22.323-6.554 31.13z" />
<glyph unicode="&#x37;" glyph-name="email-filled" d="M501.35 357.069v0c6.349-4.915 13.517-7.578 21.094-7.578 8.192 0 16.179 2.867 21.914 8.192l88.883 75.981 237.568-213.811h-717.005l255.59 211.763 91.955-74.547zM214.016 676.352h599.245l-291.43-249.037-307.814 249.037zM685.261 478.106l186.163 158.925v-326.451l-186.163 167.526zM152.576 306.278v333.005l203.366-164.454-203.366-168.55z" />
<glyph unicode="&#x38;" glyph-name="link" d="M885.555 806.4l-17.613 17.613c-36.454 36.454-84.787 56.525-136.192 56.525-51.61 0-99.942-20.070-135.987-56.32l-175.104-174.899c-19.866-19.866-35.226-44.237-44.851-70.656-23.142-9.626-44.032-23.552-62.259-41.779l-175.104-174.899c-36.454-36.25-56.525-84.787-56.525-136.192s20.070-99.942 56.525-136.192l17.613-17.613c36.454-36.454 84.787-56.525 136.192-56.525s99.942 20.070 136.192 56.525l174.899 175.104c20.275 20.275 35.43 44.237 45.056 70.861 22.938 9.421 43.827 23.347 62.259 41.574l174.899 174.899c36.454 36.454 56.525 84.787 56.525 136.192s-20.070 99.738-56.525 135.782zM552.346 303.411c-1.024-1.024-2.048-2.048-2.867-3.072l-174.899-175.104c-22.323-21.504-51.405-33.587-82.125-33.587-31.13 0-60.211 12.083-82.125 33.792l-17.613 17.613c-45.261 45.261-45.261 118.784 0 164.045l174.285 174.080c6.554-39.526 25.19-76.186 53.862-105.062l17.613-17.613c30.925-30.925 70.861-49.971 113.869-55.091zM865.485 670.208c0-30.925-12.083-60.211-33.792-82.33l-174.080-174.080c-6.554 39.526-25.19 76.39-53.862 105.267l-17.613 17.613c-30.925 30.925-71.066 50.176-114.074 55.091 1.024 1.024 1.843 2.048 2.867 3.072l175.104 174.899c21.914 21.914 50.995 33.792 82.125 33.792 30.925 0 60.006-12.083 82.125-33.792l17.613-17.613c21.709-21.709 33.587-50.995 33.587-81.92zM474.522 430.797c-22.323 22.323-34.406 52.634-33.997 84.173 34.406 2.458 67.789-9.421 90.726-32.358l17.613-17.613c21.914-21.914 33.792-50.995 33.792-82.33v-0.41c0-0.819 0-1.843 0-2.662-33.178-2.662-66.56 9.421-90.726 33.587l-17.408 17.613z" />
<glyph unicode="&#x39;" glyph-name="search-active" d="M922.829 77.312l-199.27 199.066c57.344 65.741 88.678 149.094 88.678 236.339 0 198.451-161.587 360.038-360.038 360.038s-360.038-161.382-360.038-359.629c0-198.656 161.587-360.243 360.038-360.243 82.125 0 161.587 28.058 225.69 79.462l199.885-199.885c5.939-5.939 13.926-9.216 22.528-9.216 8.192 0 16.179 3.072 22.118 8.806l0.614 0.614c11.878 12.698 11.674 32.154-0.205 44.646zM658.432 300.134c-0.41-0.41-1.229-0.819-1.843-1.638l-0.614-0.614c-55.296-52.429-127.59-81.306-203.776-81.306-0.205 0-0.205 0-0.41 0-78.848 0-152.986 30.72-209.101 86.63-56.115 56.115-87.040 130.662-87.040 209.92 0 163.43 133.12 296.55 296.55 296.55s296.55-133.12 296.55-296.55c0-80.896-32.154-156.467-90.317-212.992z" />
<glyph unicode="&#x61;" glyph-name="lock" d="M854.221 536.064h-682.394c-14.541 0-26.419-11.878-26.419-26.419v-455.066c0-14.541 11.878-26.419 26.419-26.419h682.394c14.541 0 26.419 11.878 26.419 26.419v455.066c0 14.541-11.878 26.419-26.419 26.419zM825.344 482.816v-401.408h-626.688v401.408h626.688zM306.176 610.406c14.541 0 26.419 11.878 26.419 26.419 0 98.918 80.486 179.405 179.405 179.405s179.405-80.486 179.405-179.405c0-14.541 11.878-26.419 26.419-26.419s26.419 11.878 26.419 26.419c0 128-104.243 232.243-232.243 232.243s-232.243-104.243-232.243-232.243c0-14.541 11.878-26.419 26.419-26.419zM512 202.65c54.067 0 97.894 43.827 97.894 97.894s-43.827 97.894-97.894 97.894c-54.067 0-97.894-43.827-97.894-97.894s43.827-97.894 97.894-97.894zM512 345.19c24.781 0 44.851-20.070 44.851-44.851s-20.070-44.851-44.851-44.851c-24.781 0-44.851 20.070-44.851 44.851s20.070 44.851 44.851 44.851z" />
<glyph unicode="&#x62;" glyph-name="video" d="M921.805 594.842c-6.144 4.915-15.155 6.963-22.528 5.325l-159.949-34.202v102.195c0 15.155-11.469 27.648-25.6 27.648h-91.136v1.434c0 60.211-48.538 109.158-108.134 109.158h-226.099c-14.746 0-26.624-11.878-26.624-26.624s11.878-26.624 26.624-26.624h226.099c30.31 0 54.886-24.986 54.886-55.91v-1.434h-450.56c-14.336 0-26.624-12.698-26.624-27.648v-551.936c0-14.746 11.878-26.829 26.624-26.829h594.944c14.336 0 25.6 11.878 25.6 26.829v102.195l159.949-34.202c1.229-0.205 3.482-0.614 5.734-0.614 6.144 0 12.493 2.253 16.998 5.939 6.144 4.915 9.83 12.698 9.83 20.685v363.93c0 7.987-3.686 15.77-10.035 20.685zM878.592 540.979v-297.574l-139.264 29.696v238.387l139.264 29.491zM686.080 642.56v-499.712h-540.672v499.712h540.672zM234.906 243.2h382.771c14.746 0 26.624 11.878 26.624 26.624s-11.878 26.624-26.624 26.624h-382.771c-14.746 0-26.624-11.878-26.624-26.624s11.878-26.624 26.624-26.624z" />
<glyph unicode="&#x63;" glyph-name="trash-open" d="M569.344 130.355c0.819 0 1.638 0 2.253 0 14.746 0 27.238 11.264 28.467 26.419l22.733 279.962c1.229 15.77-10.445 29.696-26.214 30.925s-29.696-10.445-30.925-26.214l-22.733-280.166c-1.229-15.77 10.65-29.491 26.419-30.925zM952.525 563.098l-140.083 90.931 24.781 101.786c2.867 11.878-2.048 24.166-12.288 30.925l-136.806 88.883c-10.24 6.554-23.552 6.144-33.178-1.434l-82.944-64.102-139.878 90.931c-13.312 8.602-31.13 4.915-39.731-8.397s-4.915-31.13 8.397-39.731l363.315-235.93c0.205-0.205 0.41-0.205 0.614-0.41l156.467-101.581c4.915-3.072 10.24-4.71 15.565-4.71 9.421 0 18.637 4.506 24.166 13.107 8.806 13.517 4.915 31.13-8.397 39.731zM761.651 687.206l-72.704 47.104-65.741 42.803 50.995 39.526 102.605-66.765-15.155-62.669zM423.322 156.774c1.229-14.95 13.722-26.419 28.467-26.419 0.819 0 1.638 0 2.253 0 15.77 1.229 27.443 15.155 26.214 30.925l-22.733 279.962c-1.229 15.77-15.155 27.443-30.925 26.214s-27.443-15.155-26.214-30.925l22.938-279.757zM727.859 566.989h-432.128c-7.987 0-15.565-3.277-21.094-9.216s-8.192-13.722-7.578-21.709l41.37-511.181c1.229-14.95 13.722-26.419 28.672-26.419h349.389c14.95 0 27.443 11.469 28.672 26.419l41.37 511.181c0.614 7.987-2.048 15.77-7.578 21.709s-13.107 9.216-21.094 9.216zM660.070 55.808h-296.55l-36.659 453.837h369.869l-36.659-453.837z" />
<glyph unicode="&#x64;" glyph-name="heart" d="M898.458 677.786c-39.117 67.584-111.411 114.483-188.621 122.266-6.758 0.819-14.131 1.024-23.757 1.024-51.61 0-129.229-16.998-183.706-64.512-50.586 46.899-120.422 70.451-188.416 63.283-77.005-7.782-149.299-54.477-188.621-122.266-38.502-66.355-44.032-152.371-14.336-224.051 29.491-70.861 86.016-121.446 146.432-171.213 73.318-60.621 151.142-121.242 231.424-180.019 6.554-4.915 14.541-7.578 22.938-7.578s16.384 2.662 22.938 7.578c78.234 57.344 156.058 117.965 231.424 180.224 60.416 49.766 117.146 100.352 146.432 171.418 29.901 71.68 24.576 157.491-14.131 223.846zM336.896 748.032c54.477 0 107.725-23.962 142.336-64.102 5.53-6.554 13.926-10.24 22.733-10.24 7.782 0 17.613 4.506 22.528 10.24 36.864 41.984 115.917 69.632 179.814 63.283 60.416-5.939 117.146-42.803 147.866-96.051 30.72-52.429 35.021-120.218 11.469-177.152 0 0 0 0 0 0-24.781-59.597-76.186-105.267-131.277-150.733-70.246-57.958-144.384-115.917-220.57-172.032-73.933 54.477-148.070 112.23-220.57 172.237-55.091 45.466-106.496 91.136-131.277 150.733-23.552 56.525-19.251 124.314 11.264 176.947 30.72 53.043 87.45 89.907 147.866 95.846 6.554 0.614 12.288 1.024 17.818 1.024zM687.718 620.032c20.89-0.614 40.55-10.035 55.706-26.214 14.336-15.36 22.323-37.478 21.709-59.392-0.205-8.397 3.482-17.613 9.421-23.757 4.71-4.71 10.445-7.373 16.589-7.373h0.614c14.95 0 26.214 15.565 26.624 29.491 1.229 37.069-12.288 74.138-36.045 99.328-24.166 25.805-56.934 40.55-92.365 41.779-6.963 0.614-13.312-1.229-18.432-5.53-5.734-4.71-9.216-12.083-9.421-20.070 0 0 0-0.205 0-0.205-0.41-15.155 11.264-27.648 25.6-28.058z" />
<glyph unicode="&#x65;" glyph-name="book2" d="M875.52 776.090v2.458c0 1.024-0.205 2.048-0.41 2.867-0.205 1.024-0.41 1.843-0.819 2.867-0.205 0.41-0.41 0.819-0.614 1.229 0 0.205 0 0.205-0.205 0.41 0 0.205 0 0.205-0.205 0.41-0.205 0.819-0.614 1.434-1.024 2.048 0 0.205-0.205 0.614-0.41 0.819v1.434l-2.458 2.458c-0.205 0.41-0.614 0.819-1.229 1.434l-1.024 1.024v0.819l-2.458 1.434-1.843 1.843h-1.434c-4.096 2.253-8.397 3.277-12.698 3.277h-0.205c-2.458 0-4.71-0.41-6.554-0.819h-1.434l-1.229-0.614h-2.458l-2.048-2.048-52.019-31.334-50.381 20.070 0.614 0.41c12.493 7.782 16.589 24.371 8.806 36.864s-23.962 16.384-36.659 8.806l-44.851-27.648c-0.205-0.205-0.614-0.41-0.819-0.41l-28.672-18.022v22.938c0 0.614 0 1.434-0.205 2.458 0.614 5.734-0.614 11.674-3.686 16.589-3.686 6.144-9.421 10.445-16.589 12.288-6.963 1.638-14.131 0.614-20.275-3.072l-57.139-34.611-50.176 20.275 5.734 3.482c6.144 3.686 10.24 9.626 12.083 16.589 1.638 6.963 0.614 14.131-3.277 20.275-7.782 12.493-24.166 16.384-36.659 8.806l-49.562-30.31c-1.229-0.614-2.253-1.434-2.867-2.048l-227.942-139.469c-17.613-10.65-28.262-30.31-27.853-50.995v-0.205c0-0.614-0.205-1.434-0.205-2.253l-8.192-516.301c0-2.662 0.41-5.12 1.024-7.373 8.397-30.31 24.576-51.405 48.128-63.078 12.083-5.939 26.010-9.011 41.37-9.011 22.733 0 41.779 6.963 46.694 9.421l0.41 0.205 107.52 65.536-0.614-30.72c0-2.662 0.41-5.12 1.024-7.373 8.397-30.31 24.576-51.405 48.128-63.078 12.083-5.939 26.010-9.011 41.37-9.011 22.733 0 41.779 6.963 46.694 9.421l0.41 0.205 340.787 207.258c7.987 4.71 13.107 13.517 13.107 23.142l-4.506 517.939zM545.382 623.923c-4.506-2.662-9.421-4.915-13.722-6.349-55.91-17.408-75.366-10.445-80.077-7.987-0.41 0.205-1.024 0.614-1.229 2.458 0 1.638 0.819 3.072 2.253 3.891l223.232 136.806 49.971-20.070-180.429-108.749zM449.741 554.496c6.758-1.229 14.131-1.843 21.914-1.843 21.094 0 46.694 4.71 76.186 13.926 9.421 2.867 17.613 6.758 25.6 11.469l249.037 150.528 3.891-455.885-323.994-197.632c-7.782-2.662-26.624-7.373-41.165-0.205-8.397 4.096-14.746 12.902-19.046 25.805l7.578 453.837zM577.536 755.405l-152.576-93.594c-15.974-9.83-26.214-27.034-27.443-45.875v0c0-0.614-0.205-1.434-0.205-2.458l-6.758-422.502-132.71-80.691c-7.782-2.662-26.624-7.373-41.165-0.205-8.397 4.096-14.746 12.902-19.046 25.805l7.373 459.162c6.758-1.229 14.131-1.843 21.914-1.843 21.094 0 46.694 4.71 76.186 13.926 9.421 2.867 17.613 6.758 25.6 11.469l249.242 150.323-0.41-13.517zM300.646 664.474c-4.506-2.662-9.421-4.915-13.722-6.349-55.91-17.408-75.366-10.445-80.077-7.987-0.41 0.205-1.024 0.41-1.229 2.458 0 1.843 0.819 3.277 2.048 4.096l218.317 133.734 49.766-20.275-175.104-105.677zM546.406 161.69c14.746 0 26.829 12.083 26.829 26.829v298.189c-0.41 14.541-12.288 26.419-26.829 26.419-14.746 0-26.829-12.083-26.829-26.829v-297.779c0-14.746 11.878-26.829 26.829-26.829zM303.104 548.762c-14.746 0-26.829-12.083-26.829-26.829v-297.779c0-14.746 12.083-26.829 26.829-26.829s26.829 12.083 26.829 26.829v297.984c0 14.541-12.083 26.624-26.829 26.624z" />
<glyph unicode="&#x66;" glyph-name="inside" d="M774.349 395.981c-5.12 4.915-11.469 7.373-19.251 7.373-7.578 0-14.541-2.458-20.48-7.373l-194.355-188.826v109.363c0 0.614 0.205 1.024 0.205 1.638v119.603c0 161.997-16.589 243.302-59.597 290.202-45.875 49.766-113.664 53.453-211.968 53.453-15.565 0-28.262-12.288-28.262-27.238 0-15.155 12.698-27.443 28.262-27.443 165.069 0 214.835 0 214.835-289.382v-119.603c0-0.614 0.205-1.024 0.205-1.434v-109.363l-194.355 188.826c-5.939 4.915-12.698 7.373-20.48 7.373-7.578 0-14.131-2.458-19.251-7.373-5.939-5.734-8.806-12.288-8.806-19.661s2.867-13.517 8.806-18.432l241.869-234.496c0.819 0 1.434-0.205 1.843-0.614s0.614-1.024 0.614-1.843c0.819 0 1.229-0.205 1.229-0.614s0.41-0.614 1.229-0.614c0.819 0 1.229-0.205 1.229-0.614s0.41-0.614 1.229-0.614c0.819 0 1.229-0.205 1.229-0.614s0.41-0.614 1.229-0.614c0.819 0 1.229-0.205 1.229-0.614s0.41-0.614 1.229-0.614h4.915c0.819-0.819 1.638-1.229 2.458-1.229h1.843c0.41 0 0.614 0.41 0.614 1.229h4.915l1.229 1.229h1.229c0.819 0 1.229 0.205 1.229 0.614s0.41 0.614 1.229 0.614c0.819 0 1.229 0.205 1.229 0.614s0.41 0.614 1.229 0.614c0.819 0 1.229 0.205 1.229 0.614s0.41 0.614 1.229 0.614c0 0.819 0.205 1.434 0.614 1.843s1.024 0.614 1.843 0.614l241.664 234.496c5.939 4.915 9.011 11.059 9.011 18.432 1.638 7.578-1.434 14.131-7.373 19.866z" />
<glyph unicode="&#x67;" glyph-name="left" d="M749.773 100.864l-346.931 347.136 346.726 346.931c24.166 24.166 24.166 61.85 0 85.811-11.469 11.469-26.624 17.818-42.803 17.818s-31.744-6.554-43.008-18.022l-389.53-389.734c-24.166-24.166-24.166-61.85 0-85.811l389.734-389.734c11.264-11.674 26.624-18.022 43.008-18.022s31.744 6.349 43.008 18.022c23.962 23.962 23.757 61.645-0.205 85.606z" />
<glyph unicode="&#x69;" glyph-name="connect" d="M536.781 537.702c17.818 0 35.43 2.867 52.429 8.602l80.691-138.65c6.144-10.445 17.613-16.998 29.696-16.998 6.349 0 12.288 1.638 17.203 4.71 16.179 9.626 21.709 30.106 12.493 46.694l-80.691 138.854c59.187 53.248 73.114 140.288 32.973 209.101-46.49 79.872-149.299 107.11-229.171 60.826-38.707-22.323-66.355-58.573-78.029-101.99-11.469-43.418-5.53-88.678 16.998-127.181 29.901-52.019 85.811-83.968 145.408-83.968zM440.525 731.034c6.758 25.6 23.142 47.104 45.875 60.416 15.155 8.806 31.949 13.312 49.766 13.312 35.43 0 68.403-19.046 86.016-49.562 27.443-47.309 11.264-108.339-36.045-135.782-15.155-8.602-32.154-13.312-49.562-13.312-35.43 0-68.403 19.046-86.016 49.562-13.312 22.733-16.794 49.562-10.035 75.366zM357.581 335.155l79.462 139.469c9.216 16.384 3.686 37.478-12.698 46.899-7.782 4.506-17.203 5.53-26.010 3.072s-16.179-7.987-20.685-16.179l-79.462-139.469c-31.334 10.24-64.307 10.854-95.846 2.048-43.008-11.674-79.053-39.731-101.376-78.848-22.118-39.117-27.853-84.378-15.974-127.386 11.674-43.008 39.526-79.053 78.643-101.376 26.010-14.746 53.862-22.118 82.739-22.118 14.746 0 29.901 2.048 44.646 6.144 43.008 11.674 79.053 39.731 101.376 78.848 22.118 39.117 27.853 84.378 15.974 127.386-8.602 31.539-26.010 59.597-50.79 81.51zM333.005 160.461c-12.902-22.938-34.406-39.526-60.006-46.694-25.395-6.963-52.224-3.686-75.366 9.421-22.938 13.312-39.526 34.611-46.694 60.006-6.963 25.805-3.686 52.634 9.421 75.366 12.902 22.938 34.406 39.526 60.006 46.694 8.192 2.253 16.998 3.482 26.214 3.482 17.203 0 33.587-4.506 49.152-13.312 22.938-12.902 39.526-33.997 46.49-59.802 7.168-25.19 3.891-52.019-9.216-75.162zM777.421 358.707h-0.614c-79.667-0.205-147.866-56.32-163.84-134.144l-160.154-0.614c-18.842 0-34.202-15.36-34.202-34.406 0-18.842 15.36-34.202 34.202-34.202l160.358 0.614c16.384-77.21 84.582-132.915 164.25-132.915h0.614c44.851 0.205 86.835 17.818 118.374 49.562 31.744 31.949 48.947 74.138 48.742 118.784-0.205 92.365-75.366 167.322-167.731 167.322zM876.544 191.386c0.205-26.624-10.035-51.405-28.672-70.042-18.637-18.842-43.418-29.286-69.837-29.491h-0.41c-54.477 0-98.918 44.237-99.123 98.714-0.205 54.682 44.032 99.328 98.714 99.738h0.41c54.272-0.205 98.714-44.646 98.918-98.918v0z" />
<glyph unicode="&#x6b;" glyph-name="email" d="M939.008 713.83c-0.614 16.998-14.131 30.31-30.925 30.31h-792.576c-16.998 0-30.72-13.722-30.72-30.72v-530.637c0-16.998 13.722-30.72 30.72-30.72h792.781c16.998 0 30.72 13.722 30.72 30.72v531.046zM501.35 357.069v0c6.349-4.915 13.517-7.578 21.094-7.578 8.192 0 16.179 2.867 21.914 8.192l88.883 75.981 237.568-213.811h-717.005l255.59 211.763 91.955-74.547zM214.016 676.352h599.245l-291.43-249.037-307.814 249.037zM685.261 478.106l186.163 158.925v-326.451l-186.163 167.526zM152.576 306.278v333.005l203.366-164.454-203.366-168.55z" />
<glyph unicode="&#x6c;" glyph-name="down" d="M944.947 685.568c-23.962 24.166-61.85 24.166-85.811 0l-347.136-346.726-346.931 346.931c-23.962 23.962-61.645 24.166-85.606 0.205-11.674-11.264-18.022-26.624-18.022-43.008s6.349-31.744 18.022-43.008l389.53-389.734c12.083-12.083 27.443-18.022 43.008-18.022 15.36 0 30.925 5.939 43.008 18.022l389.734 389.53c11.469 11.059 18.022 26.829 18.022 43.008-0.205 16.179-6.349 31.334-17.818 42.803z" />
<glyph unicode="&#x6d;" glyph-name="up" d="M944.742 296.243l-389.734 389.53c-24.166 24.166-61.85 24.166-85.811 0l-389.939-389.734c-11.674-11.264-18.022-26.624-18.022-43.008s6.349-31.744 18.022-43.008c12.083-11.878 27.443-17.818 42.803-17.818s30.925 5.939 43.008 18.022l347.136 346.931 346.726-346.726c24.166-24.166 61.85-24.166 85.811 0 11.469 11.469 17.818 26.624 17.818 42.803 0.205 16.179-6.349 31.744-17.818 43.008z" />
<glyph unicode="&#x6e;" glyph-name="video-play" d="M866.918 748.442h-709.837c-35.84 0-64.922-29.082-64.922-64.922v-471.040c0-35.84 29.082-64.922 64.922-64.922h709.837c35.84 0 64.922 29.082 64.922 64.922v471.040c0 35.84-29.082 64.922-64.922 64.922zM877.158 683.52v-471.040c0-5.734-4.506-10.24-10.24-10.24h-709.837c-5.734 0-10.24 4.506-10.24 10.24v471.040c0 5.734 4.506 10.24 10.24 10.24h709.837c5.734 0 10.24-4.506 10.24-10.24zM608.87 471.552l-166.298 96.051c-8.602 4.915-19.046 4.915-27.238 0-8.602-4.915-13.722-13.722-13.722-23.552v-192.102c0-9.83 5.12-18.637 13.722-23.552 0 0 0.205 0 0.205-0.205 4.301-2.253 8.806-3.482 13.517-3.482s9.216 1.229 13.517 3.482c0 0 0.205 0 0.205 0.205l166.298 96.051c8.602 4.915 13.722 13.722 13.722 23.552 0 9.626-5.325 18.637-13.926 23.552zM540.672 448l-84.582-48.742v97.485l84.582-48.742z" />
<glyph unicode="&#x6f;" glyph-name="cross-cursor" d="M887.398 469.709l-127.181 127.181c-12.083 12.083-31.539 12.083-43.418 0-12.083-12.083-12.083-31.539 0-43.418l74.752-74.752h-248.832v248.832l74.752-74.752c5.939-5.939 13.926-9.011 21.709-9.011s15.77 3.072 21.709 9.011c12.083 12.083 12.083 31.539 0 43.418l-127.181 127.181c-12.083 12.083-31.539 12.083-43.418 0l-127.181-127.181c-12.083-12.083-12.083-31.539 0-43.418 12.083-12.083 31.539-12.083 43.418 0l74.752 74.752v-248.832h-248.832l74.752 74.752c12.083 12.083 12.083 31.539 0 43.418-12.083 12.083-31.539 12.083-43.418 0l-127.181-127.181c-12.083-12.083-12.083-31.539 0-43.418l127.181-127.181c5.939-5.939 13.926-9.011 21.709-9.011s15.77 3.072 21.709 9.011c12.083 12.083 12.083 31.539 0 43.418l-74.752 74.752h248.832v-248.832l-74.752 74.752c-12.083 12.083-31.539 12.083-43.418 0-12.083-12.083-12.083-31.539 0-43.418l127.181-127.181c5.939-5.939 13.926-9.011 21.709-9.011s15.77 3.072 21.709 9.011l127.181 127.181c12.083 12.083 12.083 31.539 0 43.418-12.083 12.083-31.539 12.083-43.418 0l-74.752-74.752v248.832h248.832l-74.752-74.752c-12.083-12.083-12.083-31.539 0-43.418 5.939-5.939 13.926-9.011 21.709-9.011s15.77 3.072 21.709 9.011l127.181 127.181c11.878 12.083 11.878 31.334 0 43.418z" />
<glyph unicode="&#x70;" glyph-name="down-solid" d="M307.2 550.4l204.8-204.8 204.8 204.8z" />
<glyph unicode="&#x71;" glyph-name="author" d="M512.205 568.013c82.739 0 149.914 67.174 149.914 149.914s-67.174 149.914-149.914 149.914-149.914-67.174-149.914-149.914c0-82.739 67.174-149.914 149.914-149.914zM421.683 717.926c0 49.971 40.55 90.522 90.522 90.522s90.522-40.55 90.522-90.522c0-49.971-40.55-90.522-90.522-90.522s-90.522 40.55-90.522 90.522zM757.76 290.509v218.522c0 9.421-4.71 18.432-12.902 24.371-7.782 5.53-17.818 6.963-27.238 3.891 0 0-0.205 0-0.205 0l-205.21-73.728-205.414 73.728c-9.216 3.072-18.637 1.843-26.829-3.891-7.578-5.53-12.083-14.336-12.083-24.371v-217.907c-16.384-10.24-26.214-28.262-26.214-48.333s9.83-38.093 26.214-48.333v-60.211c0-12.698 7.578-23.757 19.251-28.058l214.426-75.981c0.819-0.41 1.638-0.614 2.662-0.819 0.41 0 0.819-0.205 1.229-0.205s0.819-0.205 1.024-0.205 1.229-0.205 1.843-0.205c1.434-0.205 2.867-0.205 3.686-0.205s2.253 0 3.686 0.205c0.614 0 1.229 0.205 1.843 0.205 0.41 0 0.614 0.205 1.024 0.205 0.205 0 0.41 0 0.614 0.205 1.024 0.205 2.048 0.41 2.662 0.614 0 0 0 0 0 0l215.654 76.186c11.878 4.506 20.070 15.77 20.070 28.058v60.826c15.77 10.854 25.805 28.877 25.805 47.718 0 18.637-9.83 36.864-25.6 47.718zM698.368 293.786c-18.842-9.83-30.515-29.082-30.515-51.2 0-21.914 11.674-41.165 30.515-50.995v-36.659l-155.648-55.091v311.091l155.648 55.91v-173.056zM327.68 192.41c18.227 10.445 29.901 29.901 29.901 50.381s-11.878 39.936-29.901 50.381v173.67l155.648-55.91v-310.886l-155.648 55.296v37.069z" />
<glyph unicode="&#x72;" glyph-name="book3" d="M911.974 873.165c-6.963 4.915-15.77 6.349-24.371 3.482l-375.603-135.168-375.194 134.963c-8.192 3.072-17.203 1.843-24.576-3.277-7.168-4.71-11.264-13.107-11.264-22.118v-669.901c0-11.469 7.168-21.709 18.022-25.395l382.566-135.578 1.434-1.434h3.072c0.41-0.205 0.819-0.205 1.229-0.41l1.229-0.205h0.41c1.434-0.205 2.458-0.205 3.277-0.205s2.048 0 3.277 0.205h0.614l1.229 0.205c0.41 0 1.229 0.205 2.253 0.614 1.024 0.205 2.048 0.614 2.867 1.024l382.976 135.782c10.854 3.686 18.022 13.926 18.022 25.395v669.901c-0.205 8.806-4.506 17.203-11.469 22.118zM869.171 812.749v-612.352l-330.138-117.146v610.714l330.138 118.784zM484.966 693.76v-610.509l-330.138 117.146v612.147l330.138-118.784z" />
<glyph unicode="&#x73;" glyph-name="favorite" d="M965.632 370.79c-2.048 4.915-4.301 10.445-6.758 15.565 21.504 27.034 30.106 52.634 25.6 75.981-4.301 22.733-11.878 41.165-22.323 54.682-12.288 16.589-28.467 29.696-48.128 38.502-18.842 8.397-40.55 12.493-64.307 11.674l-137.011-2.048c-0.205 0-0.41 0-0.614 0-9.421-0.614-18.842-0.41-28.467 0.614-2.048 0.205-3.891 0.41-5.734 0.819 7.168 28.877 11.059 58.778 11.674 88.883 0.614 37.683-3.891 73.933-13.517 107.93-5.939 21.914-12.288 39.117-20.275 54.477-8.192 15.974-18.022 30.106-29.286 42.189 0 0-0.205 0.205-0.205 0.205l-0.205 0.205c-15.155 15.36-33.178 27.034-53.453 34.611-20.89 7.578-41.574 9.421-61.44 5.12-26.010-4.71-46.899-18.842-62.464-41.984-15.565-23.347-20.685-48.538-15.565-74.957 7.168-37.888 6.758-72.090-1.229-101.786-8.192-30.31-20.070-57.958-35.226-82.33-15.155-24.166-32.154-44.646-50.381-60.621-7.782-6.963-15.36-13.312-22.528-19.251-1.843 3.482-4.096 6.554-6.963 9.421l-0.41 0.41c-7.782 7.578-17.613 11.469-28.467 11.469h-209.101c-11.469 0-21.299-4.096-28.672-11.878-7.782-7.782-11.878-17.613-11.878-28.672v-417.382c0-10.65 3.891-20.48 10.854-28.467 7.578-8.602 17.818-13.107 29.696-13.107h209.101c11.674 0 21.914 4.506 29.491 13.312 3.072 3.482 5.734 7.373 7.373 11.674 31.539-19.661 65.126-35.226 99.738-46.285 43.213-14.131 88.269-21.504 134.349-22.118l264.192-3.072c0.819 0 2.253 0 3.891 0.41 18.227 3.072 34.406 9.011 47.923 17.613 13.722 9.011 24.576 20.685 31.949 35.226 0.41 0.614 0.614 1.024 0.819 1.638 7.578 16.998 10.65 34.611 8.806 51.814-1.024 9.83-2.458 18.227-4.301 25.805 21.094 21.094 32.563 45.67 34.202 72.909 1.434 22.528-0.205 42.598-4.71 60.211 7.373 8.192 13.312 16.589 18.227 25.6 7.373 13.312 11.469 27.238 12.083 41.37 0.819 15.565-1.024 30.106-5.939 43.418-0.205 0-0.205 0-0.41 0.205zM879.411 419.738c0 0-0.205-0.205-0.205-0.205l-0.205-0.205c-2.662-2.662-5.12-5.734-7.578-9.83-0.205-0.205-0.205-0.41-0.41-0.614l-0.205-0.205c-0.205-0.41-0.614-1.024-0.819-1.434s-0.205-0.614-0.41-1.024c-1.434-3.891-3.072-8.806-3.072-14.541 0-4.506 0.614-8.806 1.638-12.902 0-0.205 0.205-0.41 0.205-0.614 0-0.41 0.205-0.614 0.205-1.024 1.638-5.12 4.506-9.83 7.782-13.517 12.493-18.637 13.722-28.058 13.517-31.539-0.205-3.891-1.843-7.782-4.71-11.878 0-0.205-0.205-0.205-0.205-0.41-3.072-4.915-8.192-10.445-15.36-16.384-6.349-5.12-11.264-12.083-14.131-20.48 0-0.205 0-0.205-0.205-0.41-2.662-9.011-2.253-18.227 1.434-26.624 0.614-2.458 3.277-12.493 9.216-37.683 4.915-21.709-8.806-33.997-22.938-43.008-9.626-5.734-16.179-14.746-18.432-25.805-1.843-9.421-0.819-18.432 3.277-26.829 1.843-4.096 4.096-12.288 6.758-21.504 1.843-7.168 1.843-12.493-0.205-16.794-1.434-2.458-3.072-4.096-5.53-5.734-2.662-1.638-6.349-3.072-10.854-4.096l-257.434 4.301c-37.683 0.819-73.728 6.963-110.387 18.842-35.43 11.469-69.427 28.058-101.171 49.562l-20.070 13.926v261.939c11.264 7.782 26.624 19.251 45.67 33.997 26.010 20.275 50.995 46.49 74.138 77.414 23.962 31.539 43.418 69.632 57.958 113.664 14.541 44.442 16.794 94.618 6.554 149.504 0 0.41 0 0.819-0.205 1.024-1.024 5.12-0.205 9.626 2.867 14.541 3.891 5.939 7.373 7.578 9.626 7.987 6.349 1.229 12.698 0.41 19.661-2.253 0.205 0 0.205 0 0.41-0.205 7.578-2.867 14.746-7.782 21.299-14.746 0 0 0.205-0.205 0.205-0.205l0.41-0.41c6.144-6.144 11.469-13.722 16.179-23.347 4.915-10.035 9.011-21.914 11.878-34.816 0-0.614 0.205-1.229 0.205-1.638 7.782-30.106 11.264-61.645 10.24-93.798-1.024-31.539-6.554-62.464-16.179-91.75-2.458-7.578-2.867-15.565-1.229-23.142 0.205-1.229 0.614-2.253 1.024-3.277 2.458-6.963 6.963-13.107 12.698-17.818 16.179-13.722 35.43-22.528 56.525-25.805 18.842-3.072 37.069-4.301 54.477-3.686l136.806 2.048c0.205 0 0.41 0 0.614 0 9.83 0.614 18.842-1.024 27.648-4.71 7.987-3.277 14.541-7.987 18.637-13.517 0.205-0.41 2.662-3.891 5.734-17.203 0.205-1.638-1.638-10.65-23.347-31.13zM247.194 459.878v-337.306h-127.59v337.306h127.59z" />
<glyph unicode="&#x74;" glyph-name="cart" d="M1015.603 701.133l-0.614 0.819c-7.168 9.011-17.818 14.131-29.286 14.131h-737.69l-33.792 101.171c-3.891 11.878-14.131 21.299-26.419 24.576l-140.698 33.382c-20.48 4.506-40.141-7.578-45.056-27.853-2.458-9.626-0.819-20.070 4.506-28.467s13.517-14.336 23.347-16.794l119.808-28.467 34.406-102.605c0.614-3.277 1.843-6.349 3.277-9.216l99.123-296.55c-0.205-0.41-0.41-0.819-0.41-1.434l-22.938-80.896c-29.082-3.891-56.32-17.613-77.21-38.912-24.166-24.781-37.478-57.549-37.478-91.955 0-73.114 59.392-132.506 132.301-132.506 31.539 0 61.85 11.264 85.811 31.744 19.456 16.589 33.792 38.707 41.165 62.669h232.653c7.373-24.576 21.504-46.080 41.165-62.874 24.166-20.48 54.682-31.539 85.811-31.539 72.909 0 132.301 59.392 132.301 132.301 0 73.114-59.392 132.506-132.301 132.506-31.13 0-61.645-11.264-85.811-31.744-19.456-16.589-33.792-38.707-41.165-62.874h-232.858c-10.854 36.045-36.454 66.15-69.837 82.125l12.698 44.851h546.816c16.794 0 31.334 10.854 36.25 26.829l88.678 326.042v0.41c2.458 11.059 0 22.323-6.554 31.13zM280.781 94.925c-31.539 0-57.344 25.805-57.344 57.344s25.805 57.344 57.344 57.344 57.344-25.805 57.344-57.344-25.805-57.344-57.344-57.344zM936.55 640.512l-67.994-249.856h-511.59l-83.763 249.856h663.347zM726.221 192.41c10.854 10.854 25.395 16.794 40.755 16.794 31.539 0 57.344-25.805 57.344-57.344s-25.805-57.344-57.344-57.344-57.344 25.805-57.344 57.549c0 15.565 5.734 29.901 16.589 40.346z" />
<glyph unicode="&#x75;" glyph-name="close" d="M553.165 448l370.074 370.278c5.53 5.53 8.602 12.698 8.602 20.48s-3.072 15.155-8.602 20.48c-5.53 5.53-12.698 8.602-20.48 8.602s-14.95-3.072-20.48-8.602l-370.278-370.074-370.278 370.074c-5.53 5.53-12.698 8.602-20.48 8.602s-15.155-3.072-20.48-8.602c-5.53-5.53-8.602-12.698-8.602-20.48s3.072-15.155 8.602-20.48l370.074-370.278-370.074-370.278c-5.53-5.53-8.602-12.698-8.602-20.48s3.072-15.155 8.602-20.48c5.53-5.53 12.698-8.602 20.48-8.602s14.95 3.072 20.48 8.602l370.278 370.074 370.278-370.278c5.53-5.53 12.698-8.602 20.48-8.602s14.95 3.072 20.48 8.602c5.53 5.53 8.602 12.698 8.602 20.48s-3.072 14.95-8.602 20.48l-370.074 370.483z" />
<glyph unicode="&#x76;" glyph-name="trash" d="M457.933 441.242c-1.229 15.77-15.155 27.443-30.925 26.214s-27.443-15.155-26.214-30.925l22.733-279.962c1.229-14.95 13.722-26.419 28.467-26.419 0.819 0 1.638 0 2.253 0 15.77 1.229 27.443 15.155 26.214 30.925l-22.528 280.166zM596.582 467.661c-15.77 1.229-29.696-10.445-30.925-26.214l-22.733-280.166c-1.229-15.77 10.445-29.696 26.214-30.925 0.819 0 1.638 0 2.253 0 14.746 0 27.238 11.264 28.467 26.419l22.733 279.962c1.638 15.77-10.24 29.491-26.010 30.925zM822.067 566.989h-166.912l-34.611 99.123c-4.096 11.469-14.95 19.251-27.034 19.251h-163.226c-12.288 0-23.142-7.782-27.034-19.251l-34.611-99.123h-166.912c-15.77 0-28.672-12.902-28.672-28.672s12.902-28.672 28.672-28.672h67.584l39.322-484.762c1.229-14.95 13.722-26.419 28.672-26.419h349.389c14.95 0 27.443 11.469 28.672 26.419l39.322 484.762h67.789c15.77 0 28.672 12.902 28.672 28.672s-13.312 28.672-29.082 28.672zM450.56 628.019h122.47l21.299-61.030h-165.274l21.504 61.030zM660.070 55.808h-296.55l-36.659 453.837h369.869l-36.659-453.837z" />
<glyph unicode="&#x77;" glyph-name="book1" d="M973.21 578.867c-6.963 2.867-14.746 2.662-21.709-0.41s-12.288-8.602-14.95-15.565l-184.32-477.389h-569.344c-24.986 0-48.333 9.626-65.946 27.034-17.408 17.408-27.034 40.96-27.034 66.15v33.178c0 15.565 3.277 30.106 10.035 43.213 0.41 0.614 0.819 1.434 1.024 2.048 0.205 0.205 0.205 0.41 0.41 0.614 16.384 29.082 47.718 47.309 81.51 47.309h569.139c11.264 0 21.709 7.168 26.010 17.818l210.944 505.856c3.482 8.602 2.662 18.637-2.458 26.624 0 0.205-0.205 0.205-0.205 0.41-5.53 7.782-14.131 12.288-23.347 12.288 0 0-0.41 0-0.41 0l-588.8-9.626c-47.923-0.819-90.112-29.901-107.725-73.933l-215.245-501.146c-11.878-22.323-18.022-46.285-18.022-71.68v-33.178c0-82.944 67.379-150.528 150.323-150.528h588.8c11.674 0 22.323 7.168 26.419 18.022l191.283 496.026c0 0 0 0.205 0 0.205 5.53 15.155-1.843 31.13-16.384 36.659zM143.974 356.864l174.285 405.504c0 0 0 0.205 0 0.205 9.421 23.142 31.539 38.502 56.32 38.912l545.587 9.011-186.982-448.512h-550.093c-13.517 0-26.419-1.638-39.117-5.12zM165.478 224.768c-15.565 0-28.262-12.902-28.262-28.672s12.698-28.672 28.262-28.672h514.867c15.565 0 28.262 12.902 28.262 28.672s-12.698 28.672-28.262 28.672h-514.867z" />
<glyph unicode="&#x78;" glyph-name="search" d="M915.456 70.144l-206.029 205.824c59.802 64.922 92.57 148.89 92.57 236.749 0 192.922-156.877 349.798-349.798 349.798s-349.798-156.672-349.798-349.389c0-192.922 156.877-350.003 349.798-350.003 82.739 0 163.021 29.491 226.304 83.149l206.643-206.643c4.096-4.096 9.421-6.144 15.36-6.144 5.53 0 11.059 2.253 15.155 6.144l0.205 0.205c7.782 8.397 7.782 21.914-0.41 30.31zM758.989 513.126c0-83.763-33.178-161.997-93.798-220.57 0 0-0.205-0.205-0.41-0.205-0.41-0.41-0.819-0.614-1.229-1.024l-0.614-0.614c-57.139-54.272-132.096-84.173-210.944-84.173-0.205 0-0.205 0-0.41 0-81.51 0-158.31 31.744-216.269 89.702-58.163 57.958-90.112 135.168-90.112 217.088 0 169.165 137.626 306.79 306.79 306.79 169.37-0.41 306.995-137.83 306.995-306.995z" />
<glyph unicode="&#x79;" glyph-name="check" d="M470.221-26.522l-361.267 288.973c-22.118 17.613-25.6 49.971-7.987 71.885 17.613 22.118 49.971 25.6 71.885 7.987l264.397-211.354 400.384 764.109c13.107 24.986 44.032 34.816 69.018 21.504 24.986-13.107 34.816-44.032 21.504-69.018l-457.933-874.086z" />
<glyph unicode="&#x7a;" glyph-name="right" d="M749.773 491.008l-389.53 389.734c-11.059 11.469-26.829 18.022-43.008 18.022s-31.334-6.349-42.803-17.818c-11.469-11.469-17.818-26.829-17.818-43.008s6.349-31.334 17.818-43.008l346.726-346.931-346.931-346.931c-23.962-23.962-24.166-61.645-0.205-85.606 11.264-11.674 26.624-18.022 43.008-18.022s31.744 6.349 43.008 18.022l389.734 389.53c24.166 24.166 24.166 61.85 0 86.016z" />
<glyph unicode="&#xe613;" glyph-name="question" d="M512 867.84c-231.424 0-419.84-188.416-419.84-419.84s188.416-419.84 419.84-419.84c231.424 0 419.84 188.416 419.84 419.84s-188.416 419.84-419.84 419.84zM512 81.408c-202.138 0-366.592 164.454-366.592 366.592s164.454 366.592 366.592 366.592 366.592-164.454 366.592-366.592-164.454-366.592-366.592-366.592zM529.613 664.269c-45.261 12.698-96.666-8.602-119.603-49.562-3.482-6.349-4.301-13.517-2.458-20.275s6.349-12.493 12.698-15.974c12.698-6.963 29.082-2.458 36.25 10.24 11.059 19.661 37.274 30.515 58.778 24.166 21.914-6.144 38.298-28.672 37.478-51.405-0.819-24.166-19.046-48.742-36.659-72.294-21.914-29.696-44.851-64.717-41.37-106.701 1.024-13.926 12.493-24.371 26.624-24.371h2.253c14.746 1.434 25.6 14.131 24.166 28.672-2.048 23.757 15.565 49.562 31.949 71.885 19.866 26.829 44.646 60.211 46.285 100.966 1.638 46.899-31.334 91.955-76.39 104.653zM502.579 314.675c-19.251 0-34.816-15.565-34.816-34.816s15.565-34.816 34.816-34.816c19.251 0 34.816 15.565 34.816 34.816s-15.565 34.816-34.816 34.816z" />
</font>
</defs>
</svg>
